<svg width="38" height="35" viewBox="0 0 38 35" fill="none" xmlns="http://www.w3.org/2000/svg">
<path d="M2 19.2727V29.6363C2 30.5525 2.32565 31.4312 2.90531 32.0791C3.48496 32.7269 4.27115 33.0909 5.09091 33.0909H32.9091C33.7289 33.0909 34.515 32.7269 35.0947 32.0791C35.6744 31.4312 36 30.5525 36 29.6363V19.2727" stroke="#0A0A0A" stroke-width="3.45455" stroke-linecap="round" stroke-linejoin="round"/>
<path d="M36 10.6364V5.45455C36 4.53834 35.6744 3.65967 35.0947 3.01181C34.515 2.36396 33.7289 2 32.9091 2H5.09091C4.27115 2 3.48496 2.36396 2.90531 3.01181C2.32565 3.65967 2 4.53834 2 5.45455V10.6364L19 21L36 10.6364Z" stroke="#0A0A0A" stroke-width="3.45455" stroke-linecap="round" stroke-linejoin="round"/>
</svg>
