<svg width="34" height="38" viewBox="0 0 34 38" fill="none" xmlns="http://www.w3.org/2000/svg">
<path opacity="0.3" d="M3.4043 5.10632H20.4256V32.3404H3.4043V5.10632Z" fill="white"/>
<path d="M20.4255 0H3.40426C1.53191 0 0 1.53191 0 3.40426V34.0426C0 35.9149 1.53191 37.4468 3.40426 37.4468H20.4255C22.2979 37.4468 23.8298 35.9149 23.8298 34.0426V3.40426C23.8298 1.53191 22.2979 0 20.4255 0ZM20.4255 32.3404H3.40426V5.10638H20.4255V32.3404ZM30.8085 11.4043L29.1064 13.1064C32.1702 16.1702 32.1702 20.9362 29.1064 24.1702L30.8085 25.8723C35.0638 21.9574 35.0638 15.4894 30.8085 11.4043ZM25.5319 16.6809C26.383 17.8723 26.383 19.4043 25.5319 20.5957L27.234 22.2979C29.2766 20.2553 29.2766 17.1915 27.234 14.9787L25.5319 16.6809Z" fill="white"/>
</svg>
