<svg width="60" height="60" viewBox="0 0 60 60" fill="none" xmlns="http://www.w3.org/2000/svg">
<path d="M30 6C16.746 6 6 16.746 6 30C6 43.254 16.746 54 30 54C43.254 54 54 43.254 54 30C54 16.746 43.254 6 30 6ZM42.928 25.07C42.94 25.336 42.946 25.6 42.946 25.864C42.946 34 36.756 43.376 25.434 43.376C21.956 43.376 18.722 42.358 16 40.61C16.482 40.668 16.972 40.694 17.47 40.694C20.356 40.694 23.008 39.712 25.112 38.058C22.418 38.008 20.144 36.228 19.362 33.784C19.738 33.856 20.124 33.894 20.52 33.894C21.082 33.894 21.628 33.818 22.142 33.678C19.326 33.114 17.204 30.626 17.204 27.644C17.204 27.618 17.204 27.592 17.204 27.566C18.034 28.028 18.982 28.304 19.992 28.336C18.342 27.234 17.254 25.348 17.254 23.214C17.254 22.084 17.556 21.026 18.086 20.12C21.122 23.844 25.658 26.296 30.772 26.552C30.668 26.102 30.614 25.632 30.614 25.15C30.614 21.752 33.37 18.994 36.768 18.994C38.538 18.994 40.138 19.742 41.26 20.938C42.662 20.66 43.98 20.15 45.17 19.444C44.71 20.882 43.734 22.086 42.462 22.85C43.706 22.702 44.892 22.372 45.998 21.882C45.176 23.118 44.134 24.2 42.928 25.07Z" fill="#D5CEA3"/>
</svg>
